# MagicaVoxel @ Ephtracy

# group
o 

# material
mtllib rua duplicada.mtl
usemtl palette

# normals
vn -1 0 0
vn 1 0 0
vn 0 0 1
vn 0 0 -1
vn 0 -1 0
vn 0 1 0

# texcoords
vt 0.306641 0.5
vt 0.958984 0.5
vt 0.994141 0.5

# verts
v -1.7 0 1.8
v -1.7 0 -1.8
v -1.7 0.2 0.1
v -1.7 0.2 1.19209e-07
v -1.7 0.3 1.8
v -1.7 0.3 0.1
v -1.7 0.3 1.19209e-07
v -1.7 0.3 -1.8
v 1.8 0 1.8
v 1.8 0 -1.8
v 1.8 0.1 0.1
v 1.8 0.1 1.19209e-07
v 1.8 0.2 0.1
v 1.8 0.2 1.19209e-07
v 1.8 0.3 1.8
v 1.8 0.3 -1.8
v -1.7 0 1.8
v -1.7 0.3 1.8
v 1.8 0 1.8
v 1.8 0.3 1.8
v -1.7 0 -1.8
v -1.7 0.3 -1.8
v 1.8 0 -1.8
v 1.8 0.3 -1.8
v -1.7 0 1.8
v 1.8 0 1.8
v -1.7 0 -1.8
v 1.8 0 -1.8
v -1.7 0.3 1.8
v 1.8 0.3 1.8
v -1.7 0.3 0.1
v -1.3 0.3 0.1
v -0.8 0.3 0.1
v -0.3 0.3 0.1
v 0.2 0.3 0.1
v 0.7 0.3 0.1
v 1.2 0.3 0.1
v 1.7 0.3 0.1
v -1.7 0.3 1.19209e-07
v -1.3 0.3 1.19209e-07
v -0.8 0.3 1.19209e-07
v -0.3 0.3 1.19209e-07
v 0.2 0.3 1.19209e-07
v 0.7 0.3 1.19209e-07
v 1.2 0.3 1.19209e-07
v 1.7 0.3 1.19209e-07
v -1.7 0.3 -1.8
v 1.8 0.3 -1.8

# faces
f 3/3/1 2/3/1 1/3/1
f 4/3/1 2/3/1 3/3/1
f 5/3/1 3/3/1 1/3/1
f 6/2/1 4/2/1 3/2/1
f 6/3/1 3/3/1 5/3/1
f 7/3/1 2/3/1 4/3/1
f 7/2/1 4/2/1 6/2/1
f 8/3/1 2/3/1 7/3/1
f 9/3/2 10/3/2 11/3/2
f 11/3/2 10/3/2 12/3/2
f 9/3/2 11/3/2 13/3/2
f 11/2/2 12/2/2 13/2/2
f 12/3/2 10/3/2 14/3/2
f 13/2/2 12/2/2 14/2/2
f 9/3/2 13/3/2 15/3/2
f 13/3/2 14/3/2 15/3/2
f 14/3/2 10/3/2 16/3/2
f 15/3/2 14/3/2 16/3/2
f 19/3/3 18/3/3 17/3/3
f 20/3/3 18/3/3 19/3/3
f 21/3/4 22/3/4 23/3/4
f 23/3/4 22/3/4 24/3/4
f 27/3/5 26/3/5 25/3/5
f 28/3/5 26/3/5 27/3/5
f 29/3/6 30/3/6 31/3/6
f 31/3/6 30/3/6 32/3/6
f 32/3/6 30/3/6 33/3/6
f 33/3/6 30/3/6 34/3/6
f 34/3/6 30/3/6 35/3/6
f 35/3/6 30/3/6 36/3/6
f 36/3/6 30/3/6 37/3/6
f 37/3/6 30/3/6 38/3/6
f 31/2/6 32/2/6 39/2/6
f 32/3/6 33/3/6 40/3/6
f 39/2/6 32/2/6 40/2/6
f 33/2/6 34/2/6 41/2/6
f 40/3/6 33/3/6 41/3/6
f 34/3/6 35/3/6 42/3/6
f 41/2/6 34/2/6 42/2/6
f 35/2/6 36/2/6 43/2/6
f 42/3/6 35/3/6 43/3/6
f 36/3/6 37/3/6 44/3/6
f 43/2/6 36/2/6 44/2/6
f 37/2/6 38/2/6 45/2/6
f 44/3/6 37/3/6 45/3/6
f 38/3/6 30/3/6 46/3/6
f 45/2/6 38/2/6 46/2/6
f 44/3/6 45/3/6 47/3/6
f 39/3/6 40/3/6 47/3/6
f 45/3/6 46/3/6 47/3/6
f 43/3/6 44/3/6 47/3/6
f 42/3/6 43/3/6 47/3/6
f 41/3/6 42/3/6 47/3/6
f 40/3/6 41/3/6 47/3/6
f 46/3/6 30/3/6 48/3/6
f 47/3/6 46/3/6 48/3/6
